<?xml version="1.0" encoding="UTF-8" standalone="no"?>
<!-- Created with Inkscape (http://www.inkscape.org/) -->
<svg
   xmlns:dc="http://purl.org/dc/elements/1.1/"
   xmlns:cc="http://web.resource.org/cc/"
   xmlns:rdf="http://www.w3.org/1999/02/22-rdf-syntax-ns#"
   xmlns:svg="http://www.w3.org/2000/svg"
   xmlns="http://www.w3.org/2000/svg"
   xmlns:sodipodi="http://sodipodi.sourceforge.net/DTD/sodipodi-0.dtd"
   xmlns:inkscape="http://www.inkscape.org/namespaces/inkscape"
   width="187"
   height="120"
   id="svg2"
   sodipodi:version="0.32"
   inkscape:version="0.44.1"
   sodipodi:docbase="/scratch/zenith/Modelica/docs/pics"
   sodipodi:docname="stirredtank.svg"
   version="1.0">
  <defs
     id="defs4">
    <marker
       inkscape:stockid="Arrow2Lstart"
       orient="auto"
       refY="0"
       refX="0"
       id="Arrow2Lstart"
       style="overflow:visible">
      <path
         id="path2932"
         style="font-size:12px;fill-rule:evenodd;stroke-width:0.625;stroke-linejoin:round"
         d="M 8.7185878,4.0337352 L -2.2072895,0.016013256 L 8.7185884,-4.0017078 C 6.97309,-1.6296469 6.9831476,1.6157441 8.7185878,4.0337352 z "
         transform="matrix(1.1,0,0,1.1,1.1,0)" />
    </marker>
    <marker
       inkscape:stockid="Arrow1Mend"
       orient="auto"
       refY="0"
       refX="0"
       id="Arrow1Mend"
       style="overflow:visible">
      <path
         id="path2941"
         d="M 0,0 L 5,-5 L -12.5,0 L 5,5 L 0,0 z "
         style="fill-rule:evenodd;stroke:black;stroke-width:1pt;marker-start:none"
         transform="matrix(-0.4,0,0,-0.4,-4,0)" />
    </marker>
    <marker
       inkscape:stockid="Arrow1Mstart"
       orient="auto"
       refY="0"
       refX="0"
       id="Arrow1Mstart"
       style="overflow:visible">
      <path
         id="path2944"
         d="M 0,0 L 5,-5 L -12.5,0 L 5,5 L 0,0 z "
         style="fill-rule:evenodd;stroke:black;stroke-width:1pt;marker-start:none"
         transform="matrix(0.4,0,0,0.4,4,0)" />
    </marker>
    <marker
       inkscape:stockid="TriangleInL"
       orient="auto"
       refY="0"
       refX="0"
       id="TriangleInL"
       style="overflow:visible">
      <path
         id="path2861"
         d="M 5.77,0 L -2.88,5 L -2.88,-5 L 5.77,0 z "
         style="fill-rule:evenodd;stroke:black;stroke-width:1pt;marker-start:none"
         transform="scale(-0.8,-0.8)" />
    </marker>
    <marker
       inkscape:stockid="Arrow2Lend"
       orient="auto"
       refY="0"
       refX="0"
       id="Arrow2Lend"
       style="overflow:visible">
      <path
         id="path2929"
         style="font-size:12px;fill-rule:evenodd;stroke-width:0.625;stroke-linejoin:round"
         d="M 8.7185878,4.0337352 L -2.2072895,0.016013256 L 8.7185884,-4.0017078 C 6.97309,-1.6296469 6.9831476,1.6157441 8.7185878,4.0337352 z "
         transform="matrix(-1.1,0,0,-1.1,-1.1,0)" />
    </marker>
    <marker
       inkscape:stockid="Arrow1Lstart"
       orient="auto"
       refY="0"
       refX="0"
       id="Arrow1Lstart"
       style="overflow:visible">
      <path
         id="path2950"
         d="M 0,0 L 5,-5 L -12.5,0 L 5,5 L 0,0 z "
         style="fill-rule:evenodd;stroke:black;stroke-width:1pt;marker-start:none"
         transform="matrix(0.8,0,0,0.8,10,0)" />
    </marker>
    <marker
       inkscape:stockid="Arrow1Lend"
       orient="auto"
       refY="0"
       refX="0"
       id="Arrow1Lend"
       style="overflow:visible">
      <path
         id="path2947"
         d="M 0,0 L 5,-5 L -12.5,0 L 5,5 L 0,0 z "
         style="fill-rule:evenodd;stroke:black;stroke-width:1pt;marker-start:none"
         transform="matrix(-0.8,0,0,-0.8,-10,0)" />
    </marker>
  </defs>
  <sodipodi:namedview
     id="base"
     pagecolor="#ffffff"
     bordercolor="#666666"
     borderopacity="1.0"
     gridtolerance="10000"
     guidetolerance="10"
     objecttolerance="10"
     inkscape:pageopacity="0.0"
     inkscape:pageshadow="2"
     inkscape:zoom="4.5486134"
     inkscape:cx="159.31526"
     inkscape:cy="33.435377"
     inkscape:document-units="px"
     inkscape:current-layer="layer1"
     inkscape:window-width="1920"
     inkscape:window-height="1138"
     inkscape:window-x="0"
     inkscape:window-y="0"
     width="187px"
     height="120px" />
  <metadata
     id="metadata7">
    <rdf:RDF>
      <cc:Work
         rdf:about="">
        <dc:format>image/svg+xml</dc:format>
        <dc:type
           rdf:resource="http://purl.org/dc/dcmitype/StillImage" />
      </cc:Work>
    </rdf:RDF>
  </metadata>
  <g
     inkscape:label="Layer 1"
     inkscape:groupmode="layer"
     id="layer1">
    <path
       style="fill:none;fill-rule:evenodd;stroke:black;stroke-width:1.08011794px;stroke-linecap:butt;stroke-linejoin:miter;stroke-opacity:1"
       d="M 79.254437,13.351749 C 74.976317,13.712214 66.848483,17.780236 64.188433,23.100341 C 61.368515,28.740177 59.757249,30.701084 59.757249,37.28011 C 59.757249,42.90466 61.087825,45.253787 58.871012,49.687407 C 57.349504,52.730428 50.013483,53.893408 47.349955,55.891056 C 42.788541,59.312114 36.269349,61.431361 31.397714,63.867176 C 28.226779,65.452645 26.100689,73.534215 25.194066,77.160709 C 23.904745,82.317994 25.892386,87.930108 26.966541,92.226709 C 28.549724,98.559474 31.047723,104.77851 36.715124,108.17895 C 40.876851,110.67599 44.216986,110.83766 50.008666,110.83766 C 56.724018,110.83766 60.420387,111.72595 65.07467,105.52025 C 68.887929,100.43589 70.008714,98.274765 75.70949,93.999183 C 79.531563,91.132636 83.849411,90.856407 89.003021,89.56801 C 93.002201,88.568209 97.290788,92.538356 98.751615,93.999183 C 102.70922,97.956789 104.67837,102.58465 109.38645,107.29271 C 112.70558,110.61186 116.13107,114.12366 120.02127,117.04131 C 124.96565,120.74959 130.20908,119.48041 133.31481,117.92754 C 137.7437,115.7131 133.59026,107.53824 132.42857,104.63401 C 130.65325,100.1957 128.36598,97.246007 127.11115,92.226709 C 126.39972,89.380998 132.72565,86.02181 135.08727,84.250589 C 137.7718,82.237202 149.02645,82.478123 152.81199,82.478123 C 159.23065,82.478123 166.96641,76.821423 172.30916,73.615768 C 176.97211,70.818002 182.29233,65.170513 184.71647,60.322234 C 186.72406,56.307038 185.66342,49.93026 184.71647,46.142465 C 183.42338,40.970135 180.28467,41.932691 175.85411,40.825052 C 172.02848,39.868644 164.89136,40.743069 161.67434,39.938816 C 155.27806,38.339746 152.36558,33.955083 146.60834,31.076461 C 140.42836,27.98647 136.68155,23.720467 130.6561,22.214106 C 124.74893,20.737314 120.98826,16.896692 114.70386,16.896692 C 109.76906,16.896692 105.42307,15.040534 101.41033,14.237985 C 96.871562,13.330233 93.267478,12.465515 88.116795,12.465515 C 84.869107,12.465515 82.488343,12.543272 79.254437,13.351749 z "
       id="path1872" />
    <path
       sodipodi:type="arc"
       style="fill:red;fill-rule:evenodd;stroke:black;stroke-width:1px;stroke-linecap:butt;stroke-linejoin:miter;stroke-opacity:1"
       id="path1874"
       sodipodi:cx="97.078079"
       sodipodi:cy="101.37398"
       sodipodi:rx="5.1837811"
       sodipodi:ry="5.1837811"
       d="M 102.26186 101.37398 A 5.1837811 5.1837811 0 1 1  91.894298,101.37398 A 5.1837811 5.1837811 0 1 1  102.26186 101.37398 z"
       transform="matrix(1.080118,0,0,1.080118,-81.1542,-25.27774)" />
    <path
       sodipodi:type="arc"
       style="fill:red;fill-rule:evenodd;stroke:black;stroke-width:1px;stroke-linecap:butt;stroke-linejoin:miter;stroke-opacity:1"
       id="path1876"
       sodipodi:cx="97.078079"
       sodipodi:cy="101.37398"
       sodipodi:rx="5.1837811"
       sodipodi:ry="5.1837811"
       d="M 102.26186 101.37398 A 5.1837811 5.1837811 0 1 1  91.894298,101.37398 A 5.1837811 5.1837811 0 1 1  102.26186 101.37398 z"
       transform="matrix(1.080118,0,0,1.080118,49.15199,-27.31379)" />
    <path
       sodipodi:type="arc"
       style="fill:red;fill-rule:evenodd;stroke:black;stroke-width:1px;stroke-linecap:butt;stroke-linejoin:miter;stroke-opacity:1"
       id="path1878"
       sodipodi:cx="97.078079"
       sodipodi:cy="101.37398"
       sodipodi:rx="5.1837811"
       sodipodi:ry="5.1837811"
       d="M 102.26186 101.37398 A 5.1837811 5.1837811 0 1 1  91.894298,101.37398 A 5.1837811 5.1837811 0 1 1  102.26186 101.37398 z"
       transform="matrix(1.080118,0,0,1.080118,-38.90648,-89.41285)" />
    <text
       xml:space="preserve"
       style="font-size:12.96141624px;font-style:normal;font-weight:normal;line-height:125%;fill:black;fill-opacity:1;stroke:none;stroke-width:1px;stroke-linecap:butt;stroke-linejoin:miter;stroke-opacity:1;font-family:Bitstream Vera Sans"
       x="68.379524"
       y="59.448929"
       id="text1880"
       sodipodi:linespacing="125%"><tspan
         sodipodi:role="line"
         id="tspan1882"
         x="68.379524"
         y="59.448929"
         style="font-size:10.80117989px;font-style:normal;font-variant:normal;font-weight:normal;font-stretch:normal;text-align:start;line-height:125%;writing-mode:lr-tb;text-anchor:start;font-family:Courier New">StirredTank</tspan></text>
    <text
       xml:space="preserve"
       style="font-size:12.96141624px;font-style:normal;font-weight:normal;line-height:125%;fill:black;fill-opacity:1;stroke:none;stroke-width:1px;stroke-linecap:butt;stroke-linejoin:miter;stroke-opacity:1;font-family:Bitstream Vera Sans"
       x="33.003094"
       y="7.718154"
       id="text1884"
       sodipodi:linespacing="125%"><tspan
         sodipodi:role="line"
         id="tspan1886"
         x="33.003094"
         y="7.718154"
         style="font-size:10.80117989px;font-style:normal;font-variant:normal;font-weight:normal;font-stretch:normal;text-align:start;line-height:125%;writing-mode:lr-tb;text-anchor:start;font-family:Courier New">CheckPoint</tspan></text>
    <path
       style="fill:none;fill-rule:evenodd;stroke:black;stroke-width:1.02388763px;stroke-linecap:butt;stroke-linejoin:miter;marker-start:url(#Arrow1Mstart);marker-end:url(#Arrow1Mend);stroke-opacity:1"
       d="M 145.30003,69.917542 L 164.24259,95.97366"
       id="path4743" />
    <path
       style="fill:none;fill-rule:evenodd;stroke:black;stroke-width:1.08011794px;stroke-linecap:butt;stroke-linejoin:miter;marker-start:url(#Arrow1Mstart);marker-mid:none;marker-end:url(#Arrow1Mend);stroke-opacity:1"
       d="M 55.260124,10.411867 L 79.692533,32.299239"
       id="path5630" />
    <path
       style="fill:none;fill-rule:evenodd;stroke:black;stroke-width:1px;stroke-linecap:butt;stroke-linejoin:miter;stroke-opacity:1;marker-start:url(#Arrow1Mstart);marker-end:url(#Arrow1Mend)"
       d="M 2.4183194,90.980167 C 44.628985,76.909946 44.628985,76.909946 44.628985,76.909946"
       id="path1924" />
  </g>
</svg>
